<mxfile host="app.diagrams.net" modified="2020-10-23T14:48:19.946Z" agent="5.0 (Windows NT 10.0; Win64; x64) AppleWebKit/537.36 (KHTML, like Gecko) Chrome/86.0.4240.80 Safari/537.36 Edg/86.0.622.48" etag="VJp9iXwCMXxEAOEw8kE2" version="13.8.1" type="github">
  <diagram id="q_0R8UOEveoawnxMy5qo" name="Page-1">
    <mxGraphModel dx="2272" dy="762" grid="1" gridSize="10" guides="1" tooltips="1" connect="1" arrows="1" fold="1" page="1" pageScale="1" pageWidth="850" pageHeight="1100" math="0" shadow="0">
      <root>
        <mxCell id="0" />
        <mxCell id="1" parent="0" />
        <mxCell id="5sgcdlkwPYFkjUGc1Uxb-1" value="&lt;span style=&quot;line-height: 107% ; font-size: 25px&quot;&gt;&lt;font style=&quot;font-size: 25px&quot;&gt;Car Wash Station&lt;/font&gt;&lt;/span&gt;" style="shape=rect;html=1;verticalAlign=top;fontStyle=1;whiteSpace=wrap;align=center;fillColor=#b1ddf0;strokeColor=#10739e;gradientColor=none;strokeWidth=4;perimeterSpacing=1;shadow=1;rounded=0;fontSize=25;fontFamily=Comic Sans MS;" parent="1" vertex="1">
          <mxGeometry x="180" y="50" width="510" height="870" as="geometry" />
        </mxCell>
        <mxCell id="5sgcdlkwPYFkjUGc1Uxb-2" value="&lt;font style=&quot;font-size: 18px;&quot;&gt;user&lt;/font&gt;" style="shape=umlActor;html=1;verticalLabelPosition=bottom;verticalAlign=top;align=center;strokeWidth=1;fillColor=#cdeb8b;strokeColor=#36393d;fontSize=18;fontStyle=1" parent="1" vertex="1">
          <mxGeometry x="-200" y="410" width="100" height="190" as="geometry" />
        </mxCell>
        <mxCell id="5sgcdlkwPYFkjUGc1Uxb-3" value="Login" style="ellipse;whiteSpace=wrap;html=1;strokeWidth=1;fillColor=#ffe6cc;strokeColor=#d79b00;fontSize=14;fontStyle=1" parent="1" vertex="1">
          <mxGeometry x="365" y="200" width="140" height="70" as="geometry" />
        </mxCell>
        <mxCell id="5sgcdlkwPYFkjUGc1Uxb-4" value="book a car wash" style="ellipse;whiteSpace=wrap;html=1;strokeWidth=1;fillColor=#ffe6cc;strokeColor=#d79b00;fontSize=14;fontStyle=1" parent="1" vertex="1">
          <mxGeometry x="218" y="400" width="143.13" height="70" as="geometry" />
        </mxCell>
        <mxCell id="5sgcdlkwPYFkjUGc1Uxb-5" value="choose time" style="ellipse;whiteSpace=wrap;html=1;strokeWidth=1;fillColor=#e1d5e7;strokeColor=#9673a6;fontSize=14;fontStyle=1" parent="1" vertex="1">
          <mxGeometry x="220" y="280" width="123.13" height="80" as="geometry" />
        </mxCell>
        <mxCell id="5sgcdlkwPYFkjUGc1Uxb-6" value="select wash type" style="ellipse;whiteSpace=wrap;html=1;strokeWidth=1;fillColor=#e1d5e7;strokeColor=#9673a6;fontSize=14;fontStyle=1" parent="1" vertex="1">
          <mxGeometry x="454.12" y="370" width="118.13" height="70" as="geometry" />
        </mxCell>
        <mxCell id="5sgcdlkwPYFkjUGc1Uxb-7" value="verify password" style="ellipse;whiteSpace=wrap;html=1;strokeWidth=1;fillColor=#e1d5e7;strokeColor=#9673a6;fontSize=14;fontStyle=1" parent="1" vertex="1">
          <mxGeometry x="578.75" y="160" width="97" height="50" as="geometry" />
        </mxCell>
        <mxCell id="5sgcdlkwPYFkjUGc1Uxb-8" value="&amp;lt;&amp;lt;include&amp;gt;&amp;gt;" style="edgeStyle=none;html=1;endArrow=open;verticalAlign=bottom;dashed=1;labelBackgroundColor=none;entryX=0;entryY=0.5;entryDx=0;entryDy=0;exitX=1;exitY=0;exitDx=0;exitDy=0;strokeWidth=1;fillColor=#ffe6cc;strokeColor=#d79b00;fontSize=14;fontStyle=1" parent="1" source="5sgcdlkwPYFkjUGc1Uxb-3" target="5sgcdlkwPYFkjUGc1Uxb-7" edge="1">
          <mxGeometry width="160" relative="1" as="geometry">
            <mxPoint x="375" y="320" as="sourcePoint" />
            <mxPoint x="535" y="320" as="targetPoint" />
          </mxGeometry>
        </mxCell>
        <mxCell id="5sgcdlkwPYFkjUGc1Uxb-9" value="Display login error" style="ellipse;whiteSpace=wrap;html=1;strokeWidth=1;fillColor=#f8cecc;strokeColor=#b85450;fontSize=14;fontStyle=1" parent="1" vertex="1">
          <mxGeometry x="577.5" y="230" width="98.25" height="50" as="geometry" />
        </mxCell>
        <mxCell id="5sgcdlkwPYFkjUGc1Uxb-10" value="&amp;lt;&amp;lt;extend&amp;gt;&amp;gt;" style="edgeStyle=none;html=1;startArrow=open;endArrow=none;startSize=12;verticalAlign=bottom;dashed=1;labelBackgroundColor=none;entryX=0;entryY=0.5;entryDx=0;entryDy=0;exitX=1;exitY=0.5;exitDx=0;exitDy=0;strokeWidth=1;fillColor=#ffe6cc;strokeColor=#d79b00;fontSize=14;fontStyle=1" parent="1" source="5sgcdlkwPYFkjUGc1Uxb-3" target="5sgcdlkwPYFkjUGc1Uxb-9" edge="1">
          <mxGeometry width="160" relative="1" as="geometry">
            <mxPoint x="375" y="320" as="sourcePoint" />
            <mxPoint x="535" y="320" as="targetPoint" />
          </mxGeometry>
        </mxCell>
        <mxCell id="5sgcdlkwPYFkjUGc1Uxb-11" value="register" style="ellipse;whiteSpace=wrap;html=1;strokeWidth=1;fillColor=#ffe6cc;strokeColor=#d79b00;fontSize=14;fontStyle=1" parent="1" vertex="1">
          <mxGeometry x="361.87" y="110" width="140" height="70" as="geometry" />
        </mxCell>
        <mxCell id="5sgcdlkwPYFkjUGc1Uxb-12" value="conforming account" style="ellipse;whiteSpace=wrap;html=1;strokeWidth=1;fillColor=#e1d5e7;strokeColor=#9673a6;fontSize=14;fontStyle=1" parent="1" vertex="1">
          <mxGeometry x="578.75" y="100" width="103" height="50" as="geometry" />
        </mxCell>
        <mxCell id="5sgcdlkwPYFkjUGc1Uxb-13" value="&amp;lt;&amp;lt;include&amp;gt;&amp;gt;" style="edgeStyle=none;html=1;endArrow=open;verticalAlign=bottom;dashed=1;labelBackgroundColor=none;entryX=0;entryY=0.5;entryDx=0;entryDy=0;strokeWidth=1;fillColor=#ffe6cc;strokeColor=#d79b00;fontSize=14;fontStyle=1" parent="1" source="5sgcdlkwPYFkjUGc1Uxb-11" target="5sgcdlkwPYFkjUGc1Uxb-12" edge="1">
          <mxGeometry width="160" relative="1" as="geometry">
            <mxPoint x="360" y="110" as="sourcePoint" />
            <mxPoint x="520" y="110" as="targetPoint" />
          </mxGeometry>
        </mxCell>
        <mxCell id="5sgcdlkwPYFkjUGc1Uxb-30" value="choose palce" style="ellipse;whiteSpace=wrap;html=1;strokeWidth=1;fillColor=#e1d5e7;strokeColor=#9673a6;fontSize=14;fontStyle=1" parent="1" vertex="1">
          <mxGeometry x="371.87" y="290" width="130" height="70" as="geometry" />
        </mxCell>
        <mxCell id="5sgcdlkwPYFkjUGc1Uxb-38" value="Browse reservations" style="ellipse;whiteSpace=wrap;html=1;strokeWidth=1;fillColor=#ffe6cc;strokeColor=#d79b00;fontSize=14;fontStyle=1" parent="1" vertex="1">
          <mxGeometry x="516.5" y="450" width="140" height="70" as="geometry" />
        </mxCell>
        <mxCell id="5sgcdlkwPYFkjUGc1Uxb-39" value="give user approval" style="ellipse;whiteSpace=wrap;html=1;strokeWidth=1;fillColor=#e1d5e7;strokeColor=#9673a6;fontSize=14;fontStyle=1" parent="1" vertex="1">
          <mxGeometry x="331.63" y="495" width="140" height="70" as="geometry" />
        </mxCell>
        <mxCell id="5sgcdlkwPYFkjUGc1Uxb-42" value="send visit time notification" style="ellipse;whiteSpace=wrap;html=1;strokeWidth=1;fillColor=#ffe6cc;strokeColor=#d79b00;fontSize=14;fontStyle=1" parent="1" vertex="1">
          <mxGeometry x="501.87" y="540" width="136.87" height="80" as="geometry" />
        </mxCell>
        <mxCell id="5sgcdlkwPYFkjUGc1Uxb-43" value="create&amp;nbsp;" style="ellipse;whiteSpace=wrap;html=1;strokeWidth=1;fillColor=#ffe6cc;strokeColor=#d79b00;fontSize=14;fontStyle=1" parent="1" vertex="1">
          <mxGeometry x="531.88" y="650" width="143.87" height="70" as="geometry" />
        </mxCell>
        <mxCell id="5sgcdlkwPYFkjUGc1Uxb-44" value="transfer total to recipient " style="ellipse;whiteSpace=wrap;html=1;strokeWidth=1;fillColor=#e1d5e7;strokeColor=#9673a6;fontSize=14;fontStyle=1" parent="1" vertex="1">
          <mxGeometry x="360" y="675" width="140" height="70" as="geometry" />
        </mxCell>
        <mxCell id="5sgcdlkwPYFkjUGc1Uxb-45" value="pay the&amp;nbsp;installment" style="ellipse;whiteSpace=wrap;html=1;strokeWidth=1;fillColor=#ffe6cc;strokeColor=#d79b00;fontSize=14;fontStyle=1" parent="1" vertex="1">
          <mxGeometry x="191.63" y="600" width="140" height="70" as="geometry" />
        </mxCell>
        <mxCell id="5sgcdlkwPYFkjUGc1Uxb-46" value="send the link" style="ellipse;whiteSpace=wrap;html=1;strokeWidth=1;fillColor=#e1d5e7;strokeColor=#9673a6;fontSize=14;fontStyle=1" parent="1" vertex="1">
          <mxGeometry x="380" y="590" width="115" height="60" as="geometry" />
        </mxCell>
        <mxCell id="5sgcdlkwPYFkjUGc1Uxb-47" value="&amp;lt;&amp;lt;include&amp;gt;&amp;gt;" style="edgeStyle=none;html=1;endArrow=open;verticalAlign=bottom;dashed=1;labelBackgroundColor=none;exitX=0;exitY=0;exitDx=0;exitDy=0;strokeWidth=1;fillColor=#ffe6cc;strokeColor=#000000;fontSize=13;fontStyle=1;" parent="1" source="5sgcdlkwPYFkjUGc1Uxb-43" target="5sgcdlkwPYFkjUGc1Uxb-46" edge="1">
          <mxGeometry x="-0.0947" y="17" width="160" relative="1" as="geometry">
            <mxPoint x="416.87" y="920" as="sourcePoint" />
            <mxPoint x="576.87" y="920" as="targetPoint" />
            <mxPoint y="1" as="offset" />
          </mxGeometry>
        </mxCell>
        <mxCell id="5sgcdlkwPYFkjUGc1Uxb-51" value="send alert" style="ellipse;whiteSpace=wrap;html=1;strokeWidth=1;fillColor=#ffe6cc;strokeColor=#d79b00;fontSize=14;fontStyle=1" parent="1" vertex="1">
          <mxGeometry x="234.5" y="730" width="140" height="70" as="geometry" />
        </mxCell>
        <mxCell id="5sgcdlkwPYFkjUGc1Uxb-55" style="edgeStyle=orthogonalEdgeStyle;rounded=0;orthogonalLoop=1;jettySize=auto;html=1;exitX=0.5;exitY=0;exitDx=0;exitDy=0;entryX=0.5;entryY=1;entryDx=0;entryDy=0;strokeWidth=1;fontSize=14;fontStyle=1" parent="1" source="5sgcdlkwPYFkjUGc1Uxb-52" target="5sgcdlkwPYFkjUGc1Uxb-51" edge="1">
          <mxGeometry relative="1" as="geometry">
            <Array as="points">
              <mxPoint x="251.25" y="820" />
              <mxPoint x="304.25" y="820" />
            </Array>
          </mxGeometry>
        </mxCell>
        <mxCell id="5sgcdlkwPYFkjUGc1Uxb-52" value="rejoining" style="ellipse;whiteSpace=wrap;html=1;strokeWidth=1;fillColor=#b0e3e6;strokeColor=#0e8088;fontSize=14;fontStyle=1" parent="1" vertex="1">
          <mxGeometry x="218" y="840" width="83.25" height="50" as="geometry" />
        </mxCell>
        <mxCell id="5sgcdlkwPYFkjUGc1Uxb-54" style="edgeStyle=orthogonalEdgeStyle;rounded=0;orthogonalLoop=1;jettySize=auto;html=1;exitX=0.5;exitY=0;exitDx=0;exitDy=0;entryX=0.5;entryY=1;entryDx=0;entryDy=0;strokeWidth=1;fontSize=14;fontStyle=1" parent="1" source="5sgcdlkwPYFkjUGc1Uxb-53" target="5sgcdlkwPYFkjUGc1Uxb-51" edge="1">
          <mxGeometry relative="1" as="geometry">
            <Array as="points">
              <mxPoint x="356.25" y="820" />
              <mxPoint x="304.25" y="820" />
            </Array>
          </mxGeometry>
        </mxCell>
        <mxCell id="5sgcdlkwPYFkjUGc1Uxb-53" value="leave" style="ellipse;whiteSpace=wrap;html=1;strokeWidth=1;fillColor=#b0e3e6;strokeColor=#0e8088;fontSize=14;fontStyle=1" parent="1" vertex="1">
          <mxGeometry x="313.12" y="840" width="85.75" height="50" as="geometry" />
        </mxCell>
        <mxCell id="5sgcdlkwPYFkjUGc1Uxb-56" value="&lt;font style=&quot;font-size: 25px&quot;&gt;car wash station&lt;/font&gt;" style="shape=umlActor;html=1;verticalLabelPosition=bottom;verticalAlign=top;align=center;strokeWidth=1;fillColor=#cdeb8b;strokeColor=#36393d;fontSize=25;fontStyle=1;fontFamily=Helvetica;labelBackgroundColor=none;labelBorderColor=none;spacing=-15;" parent="1" vertex="1">
          <mxGeometry x="930" y="610" width="110" height="200" as="geometry" />
        </mxCell>
        <mxCell id="5sgcdlkwPYFkjUGc1Uxb-67" value="" style="edgeStyle=none;html=1;endArrow=none;verticalAlign=bottom;strokeWidth=1;entryX=0;entryY=0.5;entryDx=0;entryDy=0;exitX=0.5;exitY=0;exitDx=0;exitDy=0;exitPerimeter=0;fontSize=14;fontStyle=1" parent="1" source="5sgcdlkwPYFkjUGc1Uxb-2" target="5sgcdlkwPYFkjUGc1Uxb-11" edge="1">
          <mxGeometry width="160" relative="1" as="geometry">
            <mxPoint x="-10" y="340" as="sourcePoint" />
            <mxPoint x="150" y="340" as="targetPoint" />
          </mxGeometry>
        </mxCell>
        <mxCell id="5sgcdlkwPYFkjUGc1Uxb-68" value="" style="edgeStyle=none;html=1;endArrow=none;verticalAlign=bottom;strokeWidth=1;entryX=0;entryY=0.5;entryDx=0;entryDy=0;exitX=0.5;exitY=0;exitDx=0;exitDy=0;exitPerimeter=0;fontSize=14;fontStyle=1" parent="1" source="5sgcdlkwPYFkjUGc1Uxb-2" target="5sgcdlkwPYFkjUGc1Uxb-3" edge="1">
          <mxGeometry width="160" relative="1" as="geometry">
            <mxPoint x="470" y="360" as="sourcePoint" />
            <mxPoint x="630" y="360" as="targetPoint" />
          </mxGeometry>
        </mxCell>
        <mxCell id="5sgcdlkwPYFkjUGc1Uxb-74" value="" style="edgeStyle=none;html=1;endArrow=none;verticalAlign=bottom;strokeWidth=1;entryX=0.25;entryY=0.1;entryDx=0;entryDy=0;entryPerimeter=0;exitX=1;exitY=0.5;exitDx=0;exitDy=0;fontSize=14;fontStyle=1" parent="1" source="5sgcdlkwPYFkjUGc1Uxb-38" target="5sgcdlkwPYFkjUGc1Uxb-56" edge="1">
          <mxGeometry width="160" relative="1" as="geometry">
            <mxPoint x="510" y="780" as="sourcePoint" />
            <mxPoint x="670" y="780" as="targetPoint" />
          </mxGeometry>
        </mxCell>
        <mxCell id="5sgcdlkwPYFkjUGc1Uxb-76" value="" style="edgeStyle=none;html=1;endArrow=none;verticalAlign=bottom;strokeWidth=1;entryX=0;entryY=0.3333333333333333;entryDx=0;entryDy=0;entryPerimeter=0;exitX=1;exitY=0.5;exitDx=0;exitDy=0;fontSize=14;fontStyle=1" parent="1" source="5sgcdlkwPYFkjUGc1Uxb-42" target="5sgcdlkwPYFkjUGc1Uxb-56" edge="1">
          <mxGeometry width="160" relative="1" as="geometry">
            <mxPoint x="530" y="800" as="sourcePoint" />
            <mxPoint x="690" y="800" as="targetPoint" />
          </mxGeometry>
        </mxCell>
        <mxCell id="5sgcdlkwPYFkjUGc1Uxb-78" value="" style="edgeStyle=none;html=1;endArrow=none;verticalAlign=bottom;strokeWidth=1;entryX=0;entryY=1;entryDx=0;entryDy=0;entryPerimeter=0;fontSize=14;fontStyle=1" parent="1" source="5sgcdlkwPYFkjUGc1Uxb-43" target="5sgcdlkwPYFkjUGc1Uxb-56" edge="1">
          <mxGeometry width="160" relative="1" as="geometry">
            <mxPoint x="540" y="810" as="sourcePoint" />
            <mxPoint x="700" y="810" as="targetPoint" />
          </mxGeometry>
        </mxCell>
        <mxCell id="5sgcdlkwPYFkjUGc1Uxb-80" value="" style="edgeStyle=none;html=1;endArrow=none;verticalAlign=bottom;strokeWidth=1;entryX=0;entryY=1;entryDx=0;entryDy=0;entryPerimeter=0;exitX=1;exitY=0.5;exitDx=0;exitDy=0;fontSize=14;fontStyle=1" parent="1" source="5sgcdlkwPYFkjUGc1Uxb-51" target="5sgcdlkwPYFkjUGc1Uxb-56" edge="1">
          <mxGeometry width="160" relative="1" as="geometry">
            <mxPoint x="543.5" y="1200" as="sourcePoint" />
            <mxPoint x="703.5" y="1200" as="targetPoint" />
          </mxGeometry>
        </mxCell>
        <mxCell id="5sgcdlkwPYFkjUGc1Uxb-81" value="" style="edgeStyle=none;html=1;endArrow=none;verticalAlign=bottom;strokeWidth=1;entryX=0;entryY=1;entryDx=0;entryDy=0;entryPerimeter=0;exitX=1;exitY=0.5;exitDx=0;exitDy=0;fontSize=14;fontStyle=1" parent="1" source="5sgcdlkwPYFkjUGc1Uxb-44" target="5sgcdlkwPYFkjUGc1Uxb-56" edge="1">
          <mxGeometry width="160" relative="1" as="geometry">
            <mxPoint x="470" y="1190" as="sourcePoint" />
            <mxPoint x="630" y="1190" as="targetPoint" />
          </mxGeometry>
        </mxCell>
        <mxCell id="Wlmb8Jk8-eh2duupnSxf-1" value="&amp;lt;&amp;lt;include&amp;gt;&amp;gt;" style="edgeStyle=none;html=1;endArrow=open;verticalAlign=bottom;dashed=1;labelBackgroundColor=none;exitX=0.5;exitY=0;exitDx=0;exitDy=0;entryX=1;entryY=1;entryDx=0;entryDy=0;" parent="1" source="5sgcdlkwPYFkjUGc1Uxb-4" target="5sgcdlkwPYFkjUGc1Uxb-5" edge="1">
          <mxGeometry width="160" relative="1" as="geometry">
            <mxPoint x="400" y="430" as="sourcePoint" />
            <mxPoint x="560" y="430" as="targetPoint" />
          </mxGeometry>
        </mxCell>
        <mxCell id="Wlmb8Jk8-eh2duupnSxf-3" value="&amp;lt;&amp;lt;include&amp;gt;&amp;gt;" style="edgeStyle=none;html=1;endArrow=open;verticalAlign=bottom;dashed=1;labelBackgroundColor=none;exitX=1;exitY=0;exitDx=0;exitDy=0;" parent="1" source="5sgcdlkwPYFkjUGc1Uxb-4" target="5sgcdlkwPYFkjUGc1Uxb-30" edge="1">
          <mxGeometry width="160" relative="1" as="geometry">
            <mxPoint x="400" y="430" as="sourcePoint" />
            <mxPoint x="560" y="430" as="targetPoint" />
          </mxGeometry>
        </mxCell>
        <mxCell id="Wlmb8Jk8-eh2duupnSxf-4" value="&amp;lt;&amp;lt;include&amp;gt;&amp;gt;" style="edgeStyle=none;html=1;endArrow=open;verticalAlign=bottom;dashed=1;labelBackgroundColor=none;exitX=1;exitY=0.5;exitDx=0;exitDy=0;entryX=0;entryY=0.5;entryDx=0;entryDy=0;" parent="1" source="5sgcdlkwPYFkjUGc1Uxb-4" target="5sgcdlkwPYFkjUGc1Uxb-6" edge="1">
          <mxGeometry width="160" relative="1" as="geometry">
            <mxPoint x="400" y="430" as="sourcePoint" />
            <mxPoint x="560" y="430" as="targetPoint" />
          </mxGeometry>
        </mxCell>
        <mxCell id="Wlmb8Jk8-eh2duupnSxf-5" value="&amp;lt;&amp;lt;include&amp;gt;&amp;gt;" style="edgeStyle=none;html=1;endArrow=open;verticalAlign=bottom;dashed=1;labelBackgroundColor=none;exitX=0;exitY=0.5;exitDx=0;exitDy=0;" parent="1" source="5sgcdlkwPYFkjUGc1Uxb-38" target="5sgcdlkwPYFkjUGc1Uxb-39" edge="1">
          <mxGeometry width="160" relative="1" as="geometry">
            <mxPoint x="460" y="680" as="sourcePoint" />
            <mxPoint x="620" y="680" as="targetPoint" />
          </mxGeometry>
        </mxCell>
        <mxCell id="Wlmb8Jk8-eh2duupnSxf-12" value="&amp;lt;&amp;lt;include&amp;gt;&amp;gt;" style="edgeStyle=none;html=1;endArrow=open;verticalAlign=bottom;dashed=1;labelBackgroundColor=none;fontSize=12;exitX=1;exitY=1;exitDx=0;exitDy=0;entryX=0;entryY=0;entryDx=0;entryDy=0;" parent="1" source="5sgcdlkwPYFkjUGc1Uxb-45" target="5sgcdlkwPYFkjUGc1Uxb-44" edge="1">
          <mxGeometry width="160" relative="1" as="geometry">
            <mxPoint x="400" y="570" as="sourcePoint" />
            <mxPoint x="560" y="570" as="targetPoint" />
          </mxGeometry>
        </mxCell>
        <mxCell id="Wlmb8Jk8-eh2duupnSxf-13" value="" style="edgeStyle=none;html=1;endArrow=none;verticalAlign=bottom;fontSize=12;exitX=1;exitY=1;exitDx=0;exitDy=0;exitPerimeter=0;entryX=0;entryY=0;entryDx=0;entryDy=0;" parent="1" source="5sgcdlkwPYFkjUGc1Uxb-2" target="5sgcdlkwPYFkjUGc1Uxb-45" edge="1">
          <mxGeometry width="160" relative="1" as="geometry">
            <mxPoint x="400" y="570" as="sourcePoint" />
            <mxPoint x="560" y="570" as="targetPoint" />
          </mxGeometry>
        </mxCell>
        <mxCell id="Wlmb8Jk8-eh2duupnSxf-14" value="" style="edgeStyle=none;html=1;endArrow=none;verticalAlign=bottom;strokeColor=#000000;fontSize=12;entryX=0;entryY=0;entryDx=0;entryDy=0;exitX=0;exitY=1;exitDx=0;exitDy=0;exitPerimeter=0;" parent="1" source="5sgcdlkwPYFkjUGc1Uxb-2" target="5sgcdlkwPYFkjUGc1Uxb-51" edge="1">
          <mxGeometry width="160" relative="1" as="geometry">
            <mxPoint x="-20" y="440" as="sourcePoint" />
            <mxPoint x="560" y="650" as="targetPoint" />
          </mxGeometry>
        </mxCell>
        <mxCell id="ZtrBQSqVBt9DIPxW3dID-2" value="" style="edgeStyle=none;html=1;endArrow=none;verticalAlign=bottom;strokeWidth=1;entryX=0;entryY=0.5;entryDx=0;entryDy=0;exitX=1;exitY=0.3333333333333333;exitDx=0;exitDy=0;exitPerimeter=0;fontSize=14;fontStyle=1" parent="1" source="5sgcdlkwPYFkjUGc1Uxb-2" target="5sgcdlkwPYFkjUGc1Uxb-4" edge="1">
          <mxGeometry width="160" relative="1" as="geometry">
            <mxPoint x="-115" y="420" as="sourcePoint" />
            <mxPoint x="375" y="245" as="targetPoint" />
          </mxGeometry>
        </mxCell>
      </root>
    </mxGraphModel>
  </diagram>
</mxfile>
